<?xml version="1.0" standalone="no"?>
<!DOCTYPE svg PUBLIC "-//W3C//DTD SVG 20010904//EN"
 "http://www.w3.org/TR/2001/REC-SVG-20010904/DTD/svg10.dtd">
<svg xmlns="http://www.w3.org/2000/svg"
     viewBox="0 0 500.000000 499.000000"
     width="500"
     height="499"
     fill="currentColor"
>

<g transform="translate(0.000000,499.000000) scale(0.100000,-0.100000)">
<path d="M2460 4868 c-14 -6 -71 -30 -126 -54 -56 -24 -104 -44 -108 -44 -4 0
-50 -20 -104 -43 -97 -44 -205 -90 -389 -168 -97 -41 -202 -86 -403 -172 -58
-25 -150 -64 -205 -87 -55 -23 -144 -62 -198 -86 -53 -24 -100 -44 -104 -44
-4 0 -55 -21 -113 -46 -58 -25 -152 -66 -210 -91 -58 -25 -144 -63 -193 -84
-48 -22 -93 -39 -100 -39 -6 -1 -22 -6 -35 -13 -22 -13 -21 -14 37 -40 34 -15
64 -27 69 -27 5 0 33 -12 63 -26 30 -15 90 -42 134 -60 127 -52 286 -119 335
-142 51 -24 158 -69 275 -117 84 -35 227 -96 283 -120 17 -8 47 -21 65 -29 17
-7 85 -37 150 -65 64 -28 119 -51 122 -51 3 0 47 -18 97 -41 51 -22 134 -58
183 -79 50 -21 137 -59 195 -84 58 -25 108 -46 112 -46 3 0 46 -18 94 -41 102
-48 124 -48 224 -1 98 45 486 212 494 212 3 0 36 14 73 31 38 17 111 49 163
71 206 87 233 98 263 113 18 8 64 27 102 44 193 80 266 111 329 140 38 17 72
31 76 31 5 0 41 15 82 34 40 18 134 59 208 90 185 78 314 133 383 164 l59 26
-29 12 c-15 7 -76 33 -134 58 -59 25 -109 46 -113 46 -3 0 -41 16 -83 36 -43
20 -94 42 -113 49 -19 7 -70 29 -114 49 -43 20 -82 36 -86 36 -5 0 -47 18 -94
40 -47 22 -88 40 -92 40 -3 0 -58 23 -123 51 -117 51 -278 120 -338 145 -18 8
-48 21 -65 29 -49 21 -194 83 -263 111 -60 25 -212 90 -295 127 -25 11 -85 37
-135 58 -49 20 -127 53 -173 73 -91 39 -95 40 -132 24z m153 -832 c43 -20 82
-36 87 -36 5 0 40 -15 77 -33 38 -18 91 -41 118 -51 28 -10 54 -23 59 -27 6
-5 -190 -9 -453 -9 -281 0 -460 4 -456 9 3 5 22 15 43 22 20 6 63 25 94 40 31
16 85 40 120 53 35 13 92 38 128 54 45 21 71 27 85 22 11 -5 55 -24 98 -44z"/>
<path d="M156 2458 c3 -722 7 -1318 9 -1323 1 -6 29 -21 61 -34 70 -27 100
-40 178 -76 33 -14 75 -32 95 -39 35 -13 111 -46 293 -127 47 -22 90 -39 95
-39 5 0 37 -13 71 -30 56 -27 181 -80 189 -80 1 0 4 414 5 919 l3 919 130 -55
c72 -30 163 -70 203 -89 40 -19 77 -34 81 -34 4 0 54 -21 112 -46 57 -25 145
-63 194 -84 50 -21 132 -57 183 -79 51 -23 110 -48 130 -55 48 -18 272 -113
294 -126 13 -7 32 -3 72 15 30 14 58 25 61 25 3 0 32 12 63 26 31 15 98 44
147 65 50 20 140 59 200 84 61 26 137 58 170 72 33 13 89 38 125 55 36 17 81
36 100 43 19 7 60 24 90 38 30 14 90 39 133 56 43 17 100 42 127 56 27 14 55
25 61 25 6 0 46 16 88 36 42 20 92 42 111 49 19 7 60 24 90 38 31 14 80 35
110 47 30 12 79 33 110 47 30 14 71 31 90 38 19 7 75 31 123 54 49 23 93 41
98 41 5 0 52 20 104 44 l95 45 0 395 0 394 -57 -20 c-31 -11 -71 -27 -88 -35
-16 -9 -70 -33 -120 -53 -169 -70 -280 -118 -348 -149 -37 -17 -71 -31 -75
-31 -5 0 -33 -12 -62 -26 -30 -14 -86 -39 -125 -54 -72 -29 -206 -86 -285
-122 -42 -20 -108 -48 -325 -138 -49 -21 -153 -66 -230 -100 -77 -34 -151 -65
-165 -70 -14 -4 -66 -26 -116 -49 -51 -22 -94 -41 -97 -41 -3 0 -45 -18 -94
-41 -118 -55 -162 -69 -182 -59 -9 4 -45 20 -81 35 -36 15 -112 48 -170 72
-58 25 -136 58 -175 74 -38 16 -86 37 -105 46 -19 8 -48 21 -65 28 -59 24
-222 94 -325 139 -58 25 -109 46 -113 46 -4 0 -51 20 -104 44 -54 24 -141 62
-193 84 -52 23 -149 64 -215 92 -66 28 -163 70 -215 92 -52 22 -139 60 -193
84 -55 24 -103 44 -107 44 -5 0 -41 15 -82 34 -70 33 -174 76 -183 76 -2 0 -2
-591 1 -1312z"/>
<path d="M4790 2825 c-30 -13 -104 -44 -165 -70 -60 -26 -150 -64 -200 -85
-49 -21 -144 -62 -210 -90 -66 -28 -160 -69 -210 -91 -49 -22 -93 -39 -97 -39
-3 0 -45 -18 -92 -40 -47 -22 -88 -40 -91 -40 -4 0 -59 -23 -123 -51 -64 -28
-160 -69 -212 -91 -52 -22 -120 -51 -150 -65 -52 -24 -137 -60 -325 -138 -44
-18 -110 -47 -147 -64 -36 -17 -70 -31 -75 -31 -6 0 -42 -16 -82 -35 -39 -19
-75 -35 -80 -35 -8 0 -22 -776 -14 -792 4 -9 64 12 163 56 41 19 122 54 180
79 58 25 153 66 211 91 59 25 109 46 112 46 3 0 45 18 92 40 47 22 89 40 92
40 3 0 53 21 112 46 58 25 149 64 201 87 52 22 138 59 190 82 52 24 106 46
119 50 13 4 62 25 109 46 46 22 88 39 92 39 5 0 42 16 82 35 40 18 100 45 133
59 33 13 114 47 180 76 66 28 149 63 185 76 36 14 68 29 73 33 4 4 6 186 5
404 l-3 396 -55 -24z"/>
<path d="M3600 1388 c-36 -16 -101 -45 -145 -63 -148 -61 -230 -96 -305 -129
-41 -19 -120 -53 -175 -76 -109 -46 -269 -114 -382 -164 l-72 -31 -1 -300 c0
-165 -3 -344 -7 -397 -7 -117 -11 -115 109 -59 45 22 139 63 208 91 69 29 159
67 200 85 41 18 125 54 185 80 61 25 156 67 211 91 56 24 105 44 108 44 3 0
37 14 76 31 l70 32 0 398 c0 220 -3 399 -7 399 -5 -1 -37 -15 -73 -32z"/>
</g>
</svg>
